<svg id="Group_1190" data-name="Group 1190" xmlns="http://www.w3.org/2000/svg" xmlns:xlink="http://www.w3.org/1999/xlink" width="78.737" height="99.262" viewBox="0 0 78.737 99.262">
  <defs>
    <clipPath id="clip-path">
      <rect id="Rectangle_1279" data-name="Rectangle 1279" width="78.737" height="99.262" fill="#FFFFFF"/>
    </clipPath>
  </defs>
  <g id="Group_1189" data-name="Group 1189" clip-path="url(#clip-path)">
    <path id="Path_5284" data-name="Path 5284" d="M46.246,388.685c-.625-.663-1.873-.629-1.722-1.945l-1.145-.194-1.127-1.026-.828.373c-.042-.215-.129-.385-.091-.519.129-.454.2-.873-.313-1.205l-.454,1.2-.612-.437c-.182.213-.334.551-.576.634a1.9,1.9,0,0,1-1-.039,2.393,2.393,0,0,1-.826-.393,35.35,35.35,0,0,1-12.618-16.208,10.609,10.609,0,0,0,5.78-.348,27.04,27.04,0,0,0,11.718,9.572c-.1.673-.178,1.343-.288,2.009-.078.475-.216.94-.282,1.416a7.13,7.13,0,0,0-.008.97l.237.039c.158-.664.323-1.326.471-1.992.155-.7.294-1.394.455-2.159.845.262,1.6.477,2.337.729a5.861,5.861,0,0,0,7.784-4.193c.047-.2.13-.389.24-.714l7.042.665c.052.314.1.542.127.772a5.471,5.471,0,0,0,5.563,5.035c1.294-.01,2.586-.251,3.947-.395a10.473,10.473,0,0,0,.091,1.152,1.786,1.786,0,0,0,.5.971v-2.409a20.7,20.7,0,0,0,8.061-4.007l4.209.785c.411.133.711.448,1.3.334a6.212,6.212,0,0,1,1.88.27c-.777,1-1.423,1.915-2.154,2.756a32.671,32.671,0,0,1-17.386,10.485,35.4,35.4,0,0,1-18.952-.575,7.181,7.181,0,0,1-.781-.265c-.561-.245-.627-.39-.573-1.141" transform="translate(-19.782 -292.425)" fill="#FFFFFF"/>
    <path id="Path_5285" data-name="Path 5285" d="M242.692,202.843c.394,1.616.665,3.031,1.1,4.4a21.472,21.472,0,0,0,1.292,2.912,1.719,1.719,0,0,1,.2,1.067c-.264,1.938-.469,3.884-.721,5.824a8.9,8.9,0,0,1-.333,1.4,4.529,4.529,0,0,1-4.1,3.4,13.768,13.768,0,0,1-6.49-.792,4.761,4.761,0,0,1-3.279-5.346c.346-3.138.718-6.277,1.216-9.393a4.645,4.645,0,0,1,4.477-4.355,14.575,14.575,0,0,1,6.641.89m-6.362,13.166c0,.305-.012.444,0,.58a1.043,1.043,0,0,0,.939,1.053,1.054,1.054,0,0,0,1.208-.726,2.8,2.8,0,0,0,.152-.7q.543-4.233,1.072-8.468a2.706,2.706,0,0,0-.008-.714.958.958,0,0,0-.862-.884,1.034,1.034,0,0,0-1.208.564,3,3,0,0,0-.234.886c-.128.917-.23,1.838-.346,2.757-.244,1.938-.49,3.877-.715,5.649" transform="translate(-182.733 -160.165)" fill="#FFFFFF"/>
    <path id="Path_5286" data-name="Path 5286" d="M283.3,249.705a1.671,1.671,0,0,1,.672,1.447,11.818,11.818,0,0,0,6.244,10.927c.72.38,1.377.881,2.087,1.342l-.414,4.913-5.682-.52c.03-.45.078-.815.071-1.179a2.591,2.591,0,0,0-.132-1.1,1.487,1.487,0,0,0-.824-.67.883.883,0,0,0-1.046.477,3.205,3.205,0,0,0-.327,1.072c-.223,2.326-.413,4.655-.619,6.982-.042.479-.137.956-.141,1.434a2.742,2.742,0,0,0,.183.99.981.981,0,0,0,1.01.575.866.866,0,0,0,.943-.65c.182-.762.286-1.543.43-2.36l-1.05-.452.307-3.534,6.735.56-.791,9.062a5.968,5.968,0,0,1-2.715,1.279,14.577,14.577,0,0,1-7.638-.367,4.687,4.687,0,0,1-3.31-4.614c-.009-.576,0-1.152,0-1.791.725-.068,1.334-.123,1.943-.184s1.218-.128,1.894-.2c-.058-.726-.111-1.39-.168-2.1h-1.194l-.263-1.429,1.417-.159.2,1.2a4.918,4.918,0,0,0,2.141-.067c-.125-1.693-.247-3.352-.371-5.031a5.074,5.074,0,0,0-2.193.1c.021.433.038.8.062,1.31l-1.3-.062-.316-1.177,1.39-.373c-.062-.654-.122-1.287-.189-2h-1.57c.588-1.864,2.193-2.566,6.351-2.962a1.816,1.816,0,0,1-.452-.172,4.775,4.775,0,0,1-2.065-3.861,50.648,50.648,0,0,1,.69-6.657" transform="translate(-220.004 -198.114)" fill="#FFFFFF"/>
    <path id="Path_5287" data-name="Path 5287" d="M175.569,201.324l-5.63-.7c.052-.5.1-.933.138-1.364a6.317,6.317,0,0,0,.046-1.028.9.9,0,0,0-.878-.96.99.99,0,0,0-1.17.768,8.684,8.684,0,0,0-.2,1.22q-.5,3.836-.992,7.673a4.011,4.011,0,0,0-.034.823,1.044,1.044,0,0,0,.958,1.041.932.932,0,0,0,1.07-.758c.185-.728.256-1.484.376-2.228.032-.2.067-.4.109-.654,1.352-.453,1.781.926,2.756,1.307l.119-.37.839.423-.2-.447a2.244,2.244,0,0,1,2.18-.482c-.138,2.07-.518,4.112-.752,6.2A10.222,10.222,0,0,1,169.631,213a12.77,12.77,0,0,1-5.925-1.1,4.79,4.79,0,0,1-2.769-5.069c.349-3.107.671-6.22,1.151-9.308.469-3.016,2.054-4.4,5.436-4.524a13.256,13.256,0,0,1,7.94,2.378,1.4,1.4,0,0,1,.721,1.7c-.268,1.166-.321,2.381-.473,3.574-.025.2-.082.39-.144.672" transform="translate(-127.659 -153.116)" fill="#FFFFFF"/>
    <path id="Path_5288" data-name="Path 5288" d="M230.606,113.658c-.1,1.311-.19,2.494-.278,3.656,1.475.373,2.007.048,2.21-1.255.058-.37.09-.744.151-1.259l5.332.427c-.1,1.53-.187,2.987-.282,4.506-2.3,1.374-4.76,1-7.225.634l-1.221,1.164c-.306-.664.363-.844.379-1.33-.774-.221-1.572-.472-2.385-.662-.183-.043-.417.131-.695.229V119.3l-2.886-.809a.889.889,0,0,1,.169-1.095,2.247,2.247,0,0,0,.474-1.1c.2-2.19.333-4.385.495-6.578.055-.753.132-1.5.182-2.259a2.548,2.548,0,0,0-.339-1.976.927.927,0,0,1-.081-.59c.065-.888.15-1.774.24-2.8,4.683.208,9.3.745,14.038,1,.033,2.176-.275,4.228-.4,6.414l-5.334-.374c-.152-.775.247-1.614-.393-2.124a4.827,4.827,0,0,0-1.455-.512c-.475,1.111-.158,2.205-.476,3.312,1.211.433,2.487.117,3.766.5-.088,1.149-.177,2.325-.273,3.583l-3.712-.246" transform="translate(-177.391 -81.006)" fill="#FFFFFF"/>
    <path id="Path_5289" data-name="Path 5289" d="M174.264,13.34c-3.292-2.724-3.971-6.486-2.754-9.41l2.09.7.1-.162-1.877-1.414A7.766,7.766,0,0,1,174.392,0c.706.125,1.442.287,2.188.381.859.108,1.076,1.012,1.778,1.4a5.16,5.16,0,0,1,.294-.554A2.3,2.3,0,0,1,180.805.081a8.716,8.716,0,0,1,3.965,1.3c2.278,1.385,2.652,3.572,2.511,5.883a8.06,8.06,0,0,1-4.636,6.855l-.318,4.368-8.375-.62.312-4.53m7.956-6.619a3.114,3.114,0,0,0-3.1-3.158,3.18,3.18,0,0,0-3.1,3.089,3.141,3.141,0,0,0,3.028,3.14,3.061,3.061,0,0,0,3.173-3.071" transform="translate(-135.627)" fill="#FFFFFF"/>
    <path id="Path_5290" data-name="Path 5290" d="M165.291,102.615c.137.427.976.385.68,1.2l-5.283-.394c-.018-.98.213-1.98-.918-2.52l1.22-1.895c-.916-.023-1.2.181-1.489,1-.154.435-.109,1.008-.805,1.016-.086,1.082-.167,2.094-.246,3.088,2.578.522,2.033.551,3.582,1.839l-.169,2.247-3.7-.227c-.1,1.227-.2,2.406-.3,3.571,1.4.5,2.022.144,2.2-1.2.05-.368.07-.739.114-1.221l5.374.38c-.043.863-.08,1.639-.123,2.416-.006.1-.068.206-.056.3a3.064,3.064,0,0,1-1.489,2.88c-.142-.618.46-.848.693-1.459l-.983.517.063-.55a15.651,15.651,0,0,0-4.575.381,3.652,3.652,0,0,0-2.057,1.247l-.2-.476c-.325.191-.635.39-.961.559a1.6,1.6,0,0,1-.725.277c-1.363-.089-2.723-.226-4.221-.359.089-1.073.17-2.053.251-3.034,1.334-2.143.788-4.594,1.114-6.9.173-1.223.208-2.465.333-3.695a2.369,2.369,0,0,0-.29-1.684,1,1,0,0,1-.209-.565c.06-.954.16-1.906.259-3l11.266.869c-.431,1.507-.674,2.882.527,4.034l1.112,1.361" transform="translate(-119.747 -76.444)" fill="#FFFFFF"/>
    <path id="Path_5291" data-name="Path 5291" d="M86.436,294.674l.431-5.126c-.747-.053-.916.033-1.029.641-.106.572-.138,1.158-.2,1.739s-.125,1.156-.194,1.8a18.5,18.5,0,0,1-4.187-.317c.246-2.833.486-5.594.739-8.5,2.752.125,5.464.44,8.18.642s5.457.5,8.263.756l-.732,8.594-4.176-.383c.072-1.2.151-2.3.2-3.392.022-.523-.005-1.057-.813-1.195-.467,2.879-.452,5.792-.885,8.9a9.322,9.322,0,0,0-5.591-4.158" transform="translate(-64.466 -226.05)" fill="#FFFFFF"/>
    <path id="Path_5292" data-name="Path 5292" d="M172.224,311.35l-5.8-.5.7-.375-.09-.154h-.725c.3-1.075,1.4-.667,2-1.257l-1.494.118-.041-.192.9-.541h-.717c-.02-1.322.766-2.214,1.641-3.3l-1.23.394-.394-.8-.642.332a2.562,2.562,0,0,1-.081-.533c.185-2.259.4-4.516.563-6.776.067-.9.369-1.836-.288-2.688-.138-.179-.083-.533-.061-.8.064-.82.156-1.638.252-2.607l7.2.609c-.087,1.069-.162,2.019-.245,2.968a.474.474,0,0,1-.1.289,3.216,3.216,0,0,0-.776,2.372q-.36,4.209-.717,8.418a3.636,3.636,0,0,0,.259,1.483,6.026,6.026,0,0,1,.084,2.019,15.4,15.4,0,0,1-.208,1.527" transform="translate(-131.907 -231.405)" fill="#FFFFFF"/>
    <path id="Path_5293" data-name="Path 5293" d="M94.987,231.643c.707-.744.253-1.557.242-2.357l-1.312-.874,4.326-2.777.919.21c0,.642-.011,1.22,0,1.8a1.231,1.231,0,0,0,1.062,1.294,1.253,1.253,0,0,0,1.222-1.047,2.049,2.049,0,0,0-1.209-2.629c-.337-.162-.684-.3-1.07-.473l3.1-4.1a13.24,13.24,0,0,1,4.15,2.249,3.652,3.652,0,0,1,1.2,2.442,9.635,9.635,0,0,1-.393,3.973,5,5,0,0,1-4.49,3.7A13.534,13.534,0,0,1,95.4,231.9a4.64,4.64,0,0,1-.413-.256" transform="translate(-74.514 -175.093)" fill="#FFFFFF"/>
    <path id="Path_5294" data-name="Path 5294" d="M236.435,299.126l6.114.525-.237,2.982-2.559.291v2.04l1.4.1c-.046.467-.087.882-.133,1.343l-1.22.223-.21-1.386-2.166.2c.141,1.708.279,3.365.427,5.162l2.14-.186c-.027-.515-.047-.881-.071-1.337l1.084-.1v1.42l-.648.33a.975.975,0,0,0-.054.284c.07.66-.132,1.363.384,1.956.122.14.06.464.04.7q-.183,2.2-.39,4.405a4.789,4.789,0,0,1-.137.581l-5.649-.481-1.3-3.942.676-.4-1.448-1.8c.858-.249.539-.894.664-1.473a10.655,10.655,0,0,1,1.744.838,16.266,16.266,0,0,0,1.546-3.392,26.876,26.876,0,0,0,.231-4.491.568.568,0,0,0-.045-.3c-.8-1.286-.092-2.6-.183-4.086" transform="translate(-184.446 -237.325)" fill="#FFFFFF"/>
    <path id="Path_5295" data-name="Path 5295" d="M91.226,101.184a14.584,14.584,0,0,0-.985-1.281c-.518-.545-1.094-1.035-1.719-1.617L90.5,95.548c-1.546-.822-2.53-.168-2.926,2.021l-4.033-2.442.328-4.4,12.211.956c.288,1.361.563,2.663.84,3.964a1.449,1.449,0,0,1-.327,1.24c-1.2,1.589-2.379,3.2-3.578,4.79-.208.276-.349.731-.865.5l-.927-.993" transform="translate(-66.283 -71.984)" fill="#FFFFFF"/>
    <path id="Path_5296" data-name="Path 5296" d="M9.344,296.431c-1.745.173-3.26.889-4.988.928a25.594,25.594,0,0,1-1.269-4.692,2.1,2.1,0,0,1,.193-.891,6.973,6.973,0,0,0,.387-1.739L2.579,291.4.5,291.286,0,289.477l4.954-8.129c2.049,3.532,3.968,6.986,5.975,10.6l-3.48-.2,1.895,4.689" transform="translate(0 -223.22)" fill="#FFFFFF"/>
    <path id="Path_5297" data-name="Path 5297" d="M102.976,176.34a1.065,1.065,0,0,1-.138-.239,1.083,1.083,0,0,0-1.073-1.043,1.034,1.034,0,0,0-1.12.719,1.4,1.4,0,0,0,.281,1.62,12.322,12.322,0,0,0,1.124.8,13.551,13.551,0,0,1-3.527,3.953c-.744-.395-1.532-.739-2.239-1.2a4.161,4.161,0,0,1-1.907-3.467,10.4,10.4,0,0,1,.537-3.641,3.466,3.466,0,0,1,1.869-2.226,19.2,19.2,0,0,0,6.26-4.276,11.359,11.359,0,0,1-.067,9" transform="translate(-74.871 -132.763)" fill="#FFFFFF"/>
    <path id="Path_5298" data-name="Path 5298" d="M86.521,131.634l.927.993a1.153,1.153,0,0,1-.326,1.12c-.652.87-1.288,1.752-2.035,2.771a3.672,3.672,0,0,0,2.336-.1c.8-.423.6-1.315.957-2.2l1.218,2.3a13.365,13.365,0,0,1-5.665,3.916,1.983,1.983,0,0,1-.812.085c-1.678-.12-3.355-.257-5.031-.4a2.633,2.633,0,0,1-.476-.15c.064-.985.095-1.971.21-2.948a2.135,2.135,0,0,1,.458-.906c.765-1.056,1.554-2.093,2.37-3.185l.721.232.553-.669-.48-.619,2.058-2.771a21.039,21.039,0,0,1,3.019,2.526" transform="translate(-61.578 -102.434)" fill="#FFFFFF"/>
    <path id="Path_5299" data-name="Path 5299" d="M348.01,237.3l-4.75-2.688c.037-.52.049-.994.108-1.462.305-2.417.629-4.831.931-7.248a2.9,2.9,0,0,0-.254-1.79,4.742,4.742,0,0,1-.127-1.7,7.881,7.881,0,0,1,6.827,2.251,3.174,3.174,0,0,0-1.068,2.464c-.352,2.827-.747,5.65-1.157,8.47a12.86,12.86,0,0,1-.509,1.7" transform="translate(-272.34 -176.425)" fill="#FFFFFF"/>
    <path id="Path_5300" data-name="Path 5300" d="M106.529,349.483l-7.254-.62.256-3.282a2.454,2.454,0,0,0,.823-2.055c.039-.812.167-1.621.264-2.5,2.055.156,3.851.69,5.083,2.376a4.952,4.952,0,0,1,.527,1.409c.062.191,0,.435.1.6.743,1.287.152,2.6.206,4.075" transform="translate(-78.764 -270.567)" fill="#FFFFFF"/>
    <path id="Path_5301" data-name="Path 5301" d="M138.181,157.089c.828.459,1.59.854,2.323,1.3a13.261,13.261,0,0,1,1.157.882l-.55,4.432c-1.788-.088-3.491-.359-5.337-.615a12.427,12.427,0,0,0,.473-10.478c.6-1.12,1.157-2.141,1.7-3.172.173-.33.387-.462.87-.239l-.632,7.892" transform="translate(-107.722 -118.284)" fill="#FFFFFF"/>
    <path id="Path_5302" data-name="Path 5302" d="M215.121,303.992l-1.21-1.59-1.59,2.385-.149-.087,1.16-2.323L209.7,297.6c-1.154,1.749-1.906,3.548-2.9,5.26l.869,1.337c-1.039-.559-1.137-.725-1.059-1.727.05-.651.117-1.3.157-1.952a2.287,2.287,0,0,0-.28-1.486,1.55,1.55,0,0,1-.133-.887c.052-.819.151-1.636.243-2.579,2.136.1,4.232.3,6.426.5l2.266,7.845-.168.077" transform="translate(-163.714 -234.5)" fill="#FFFFFF"/>
    <path id="Path_5303" data-name="Path 5303" d="M314.714,224.729a8.777,8.777,0,0,1,3.091-1.184,1.376,1.376,0,0,1-.292,1.513,2.408,2.408,0,0,0-.488,1.194c-.328,2.279-.609,4.565-.91,6.848-.021.164-.069.324-.107.5a17.551,17.551,0,0,1-4.254-4.211l.818-2.433,2.143-2.227" transform="translate(-247.344 -177.359)" fill="#FFFFFF"/>
    <path id="Path_5304" data-name="Path 5304" d="M310.538,213.323l-2.143,2.227-1.118,1.978a1.4,1.4,0,0,1-.632-1.459c.073-.511.153-1.021.2-1.534a2.737,2.737,0,0,0-.26-2,1.1,1.1,0,0,1-.081-.7c.106-.851.245-1.7.392-2.675,2.414.09,4.74.625,7.177.8l-.205,1.678c-.733.263-1.461.466-2.133.786a7.357,7.357,0,0,0-1.2.9" transform="translate(-243.167 -165.953)" fill="#FFFFFF"/>
    <path id="Path_5305" data-name="Path 5305" d="M204.458,357.677c.005.067.051.182.015.263a1.365,1.365,0,0,0,.479,1.727,1.341,1.341,0,0,1,.452,1.713c-1.932.032-3.84-.294-5.828-.461.084-1.075.16-2.056.238-3.037a.159.159,0,0,1,.032-.1c.935-.861.669-2.1,1-3.274l.843.957L203.656,354l-.28,1.441.823.234-1.408,2.444,1.666-.441" transform="translate(-158.342 -280.861)" fill="#FFFFFF"/>
    <path id="Path_5306" data-name="Path 5306" d="M311.616,256.736l4.2,4c-.023.256-.07.6-.082.936-.024.724.21,1.12.75,1.315.588.212.918.1,1.427-.474.066-.076.128-.156.224-.274l4.423,2.6c-.086.578-.412.75-.927.781a9.977,9.977,0,0,1-8.527-3.989,7.5,7.5,0,0,1-1.487-4.9" transform="translate(-247.234 -203.693)" fill="#FFFFFF"/>
    <path id="Path_5307" data-name="Path 5307" d="M214.437,106.235l-1.112-1.361c-.706-1.819-.615-2.653.492-3.96l1.863.179-.429,5.384-.813-.242" transform="translate(-168.893 -80.064)" fill="#FFFFFF"/>
    <path id="Path_5308" data-name="Path 5308" d="M354.029,217.374a9.821,9.821,0,0,0-6.685-2.151c.048-.476.09-.893.142-1.411l6.832.87-.289,2.691" transform="translate(-275.581 -169.637)" fill="#FFFFFF"/>
    <path id="Path_5309" data-name="Path 5309" d="M234.253,333.5l-1.441,3.026-2.127-1.1-.523.431c-.056-.116-.128-.2-.109-.232.848-1.367,1.7-2.728,2.656-4.243l1.545,2.116" transform="translate(-182.52 -262.92)" fill="#FFFFFF"/>
    <path id="Path_5310" data-name="Path 5310" d="M225.615,319.928l-.541-7.106.205-.094,2.539,3.29-2.008,3.958-.2-.048" transform="translate(-178.572 -248.117)" fill="#FFFFFF"/>
    <path id="Path_5311" data-name="Path 5311" d="M212.874,320.227l-2.586-3.522,2-3.724.217.06q.282,3.554.564,7.108l-.194.079" transform="translate(-166.841 -248.317)" fill="#FFFFFF"/>
    <path id="Path_5312" data-name="Path 5312" d="M260.684,333.988l-.714.215v1.291l-1.461.09c-.123-1.507-.241-2.951-.367-4.488h1.451l.213,1.077c.507.138,1.133.14,1.172,1.058l-.294.757" transform="translate(-204.809 -262.69)" fill="#FFFFFF"/>
    <path id="Path_5313" data-name="Path 5313" d="M292.525,332.21l-.291-1.22-.675-.144c-.6-1.17-.5-1.472.576-1.878V327.7l1.428-.1.392,4.474-1.43.138" transform="translate(-231.03 -259.914)" fill="#FFFFFF"/>
    <path id="Path_5314" data-name="Path 5314" d="M206.624,337.252c-.433-.256-.814-.519-.472-1.232a47.281,47.281,0,0,1,3.249,3.659l-.161.165-.689-.532-1.88,1.41a2.154,2.154,0,0,1-.684-2.774l.5-.055.134-.641" transform="translate(-163.231 -266.596)" fill="#FFFFFF"/>
    <path id="Path_5315" data-name="Path 5315" d="M82.574,114.959a14.589,14.589,0,0,1,4.144,2.567l-.088.251-4.273-.275.216-2.543" transform="translate(-65.342 -91.208)" fill="#FFFFFF"/>
    <path id="Path_5316" data-name="Path 5316" d="M296.089,215.725a14.4,14.4,0,0,1-1.866-6.126c2.035.781,2.543,3.866,1.866,6.126" transform="translate(-233.435 -166.295)" fill="#FFFFFF"/>
    <path id="Path_5317" data-name="Path 5317" d="M279.931,352.193h1.142l.223,1.371c-.562.082-1.091.189-1.624.228s-1.085.008-1.754.008c.043-.652.087-1.31.135-2.041l1.43-.231.448.665" transform="translate(-220.498 -278.9)" fill="#FFFFFF"/>
    <path id="Path_5318" data-name="Path 5318" d="M129.182,147.586l3.028.251a8.117,8.117,0,0,1-1.567,2.947l-1.66-2.94.2-.258" transform="translate(-102.334 -117.094)" fill="#FFFFFF"/>
    <path id="Path_5319" data-name="Path 5319" d="M145.721,95.545l1.621.083c-.01,1.352.156,2.639-.729,3.811l-.892-3.895" transform="translate(-115.614 -75.805)" fill="#FFFFFF"/>
    <path id="Path_5320" data-name="Path 5320" d="M281.09,319.83l-.858.308.458-2.676,1.627-.1.216,1.4-1.307.212-.136.864" transform="translate(-222.334 -251.79)" fill="#FFFFFF"/>
    <path id="Path_5321" data-name="Path 5321" d="M90.958,243.688l.242-1.821,2.621.35.048.2-2.911,1.268" transform="translate(-72.166 -191.896)" fill="#FFFFFF"/>
    <path id="Path_5322" data-name="Path 5322" d="M270.33,319.814l-1.273.152-.13-1.535,1.884-.109-.482,1.491" transform="translate(-213.366 -252.556)" fill="#FFFFFF"/>
    <path id="Path_5323" data-name="Path 5323" d="M225.215,370.309a1.454,1.454,0,0,1-.762-1.729c.107-.388.135-.8.263-1.2.389.92,1.088,1.776.5,2.931" transform="translate(-178.027 -291.475)" fill="#FFFFFF"/>
  </g>
</svg>
